<?xml version="1.0" encoding="iso-8859-1"?>
<!-- Generator: Adobe Illustrator 18.0.0, SVG Export Plug-In . SVG Version: 6.00 Build 0)  -->
<!DOCTYPE svg PUBLIC "-//W3C//DTD SVG 1.1//EN" "http://www.w3.org/Graphics/SVG/1.1/DTD/svg11.dtd">
<svg version="1.1" id="Capa_1" xmlns="http://www.w3.org/2000/svg" xmlns:xlink="http://www.w3.org/1999/xlink" x="0px" y="0px"
	 viewBox="0 0 179.156 179.156" style="enable-background:new 0 0 179.156 179.156;" xml:space="preserve">
<g>
	<rect x="0.334" y="0" style="fill:#F4A247;" width="178.488" height="178.488"/>
	<g>
		<path style="fill-rule:evenodd;clip-rule:evenodd;fill:#FFD2C4;" d="M74.592,118.79c-29.128,12.768-37.865,19.576-41.319,22.634
			c-5.323,4.709-8.267,22.265-11.405,37.171h65.897h65.898c-3.14-14.906-6.083-32.462-11.405-37.171
			c-3.453-3.058-11.87-9.689-40.998-22.459L74.592,118.79z"/>
		
			<path style="fill-rule:evenodd;clip-rule:evenodd;fill:#51BFD2;stroke:#51BFD2;stroke-width:1.1223;stroke-linecap:round;stroke-linejoin:round;stroke-miterlimit:10;" d="
			M74.59,118.79c-29.126,12.768-37.863,19.576-41.317,22.634c-5.323,4.709-8.267,22.265-11.405,37.171h65.897h65.898
			c-3.14-14.906-6.083-32.462-11.405-37.171c-3.453-3.058-11.87-9.689-40.998-22.459L74.59,118.79z"/>
		<path style="fill-rule:evenodd;clip-rule:evenodd;fill:#FFE7DE;" d="M73.623,93.336v21.616v10.67
			c7.778,9.197,20.506,9.527,28.285,0v-10.67V93.336C101.908,75.902,73.623,75.902,73.623,93.336z"/>
		
			<ellipse transform="matrix(-0.3127 -0.9499 0.9499 -0.3127 -6.0882 157.2723)" style="fill-rule:evenodd;clip-rule:evenodd;fill:#FFE7DE;" cx="53.858" cy="80.839" rx="8.211" ry="4.748"/>
		
			<ellipse transform="matrix(0.3128 -0.9498 0.9498 0.3128 6.7469 171.0019)" style="fill-rule:evenodd;clip-rule:evenodd;fill:#FFE7DE;" cx="121.547" cy="80.838" rx="8.211" ry="4.75"/>
		<path style="fill-rule:evenodd;clip-rule:evenodd;fill:#FFE7DE;" d="M87.765,35.371c-47.466,0-29.273,59.599-26.173,64.163
			c3.419,5.035,18.506,16.136,26.173,16.136c7.671,0,22.754-11.101,26.173-16.136C117.039,94.97,135.232,35.371,87.765,35.371z"/>
		<path style="fill-rule:evenodd;clip-rule:evenodd;fill:#E6D7D7;" d="M87.84,132.644c0,0-19.737,4.712-19.737,5.907
			c0,1.194,7.51,40.044,7.51,40.044h26.796l3.07-39.873L87.84,132.644z"/>
		
			<polygon style="fill-rule:evenodd;clip-rule:evenodd;fill:#E6D7D7;stroke:#51BFD2;stroke-width:1.1223;stroke-linecap:round;stroke-linejoin:round;stroke-miterlimit:10;" points="
			73.623,119.215 73.623,125.622 79.767,178.595 69.203,178.595 57.582,155.001 68.675,147.605 55.117,141.268 67.584,121.924 		"/>
		
			<polygon style="fill-rule:evenodd;clip-rule:evenodd;fill:#E6D7D7;stroke:#51BFD2;stroke-width:1.1223;stroke-linecap:round;stroke-linejoin:round;stroke-miterlimit:10;" points="
			101.908,119.249 101.908,125.622 95.705,178.595 106.268,178.595 117.889,155.001 106.797,147.605 120.352,141.268 
			109.273,122.52 		"/>
		
			<path style="fill-rule:evenodd;clip-rule:evenodd;fill:#51BFD2;stroke:#51BFD2;stroke-width:1.1223;stroke-linecap:round;stroke-linejoin:round;stroke-miterlimit:10;" d="
			M73.623,114.952l-1.236,4.809l3.461,25.045l11.992-12.161L73.623,114.952z"/>
		
			<path style="fill-rule:evenodd;clip-rule:evenodd;fill:#51BFD2;stroke:#51BFD2;stroke-width:1.1223;stroke-linecap:round;stroke-linejoin:round;stroke-miterlimit:10;" d="
			M101.908,114.952l0.976,4.731l-3.251,25.372L87.84,132.645L101.908,114.952z"/>
		<path style="fill:#8F664D;" d="M115.289,41.729c-7.474-9.637-32.227-16.53-48.258-4.968C50.84,40.221,56.467,80.978,56.467,80.978
			c1.401,9.456,4.095,17.041,5.125,18.556c3.419,5.035,18.506,16.136,26.173,16.136c7.671,0,22.754-11.101,26.173-16.136
			c1.036-1.524,3.754-9.185,5.149-18.715l-0.034-0.014C121.384,67.894,123.575,52.413,115.289,41.729z M109.409,97.891
			c-6.685,8.245-15.408,13.351-21.352,13.386c-5.843,0.034-14.452-4.606-21.208-12.668c-2.673-3.189-5.861-11.034-7.428-15.15
			c-0.05-1.182-0.152-2.402-0.234-3.575c-0.064-0.911-0.321-1.822-0.495-2.729c1.829-6.819,5.812-24.586,18.687-26.961
			c2.5,4,10.142,3.714,13.25,3.375c6.875-0.75,5.69-5.348,14.652-2.271c0.035,0.019,0.071,0.032,0.107,0.051
			c1.663,0.894,3.203,1.972,4.62,3.201c0.003,0.005,0.007,0.01,0.01,0.016c2.188,11.957,6.18,13.275,7.694,22.253
			c-0.212,1.151-0.812,3.065-0.812,3.065S112.862,93.631,109.409,97.891z"/>
		<g>
			<path style="fill-rule:evenodd;clip-rule:evenodd;fill:#8F664D;" d="M101.299,96.729c-1.039-2.192-9.441-5.159-10.952-5.715
				c-1.511-0.557-2.582,1.381-2.582,1.381s-1.071-1.938-2.581-1.381c-1.511,0.556-9.914,3.523-10.953,5.715
				c-1.038,2.192-1.543,3.711-1.543,5.214c0,1.503,0,6.844,0,6.844s1.488,0.095,2.346-0.554c0.858-0.649,1.835-2.492,1.835-4.787
				c0-2.295,1.688-4.14,3.735-4.556c2.162-0.439,7.161-1.273,7.161-2.632c0,1.358,5.347,2.301,7.162,2.632
				c2.055,0.375,3.735,2.262,3.735,4.556c0,2.295,0.977,4.138,1.835,4.787c0.858,0.649,2.346,0.554,2.346,0.554s0-5.34,0-6.844
				C102.843,100.439,102.338,98.92,101.299,96.729z"/>
		</g>
	</g>
</g>
<g>
</g>
<g>
</g>
<g>
</g>
<g>
</g>
<g>
</g>
<g>
</g>
<g>
</g>
<g>
</g>
<g>
</g>
<g>
</g>
<g>
</g>
<g>
</g>
<g>
</g>
<g>
</g>
<g>
</g>
</svg>
