<?xml version="1.0" encoding="iso-8859-1"?>
<!-- Generator: Adobe Illustrator 18.0.0, SVG Export Plug-In . SVG Version: 6.00 Build 0)  -->
<!DOCTYPE svg PUBLIC "-//W3C//DTD SVG 1.1//EN" "http://www.w3.org/Graphics/SVG/1.1/DTD/svg11.dtd">
<svg version="1.1" id="Capa_1" xmlns="http://www.w3.org/2000/svg" xmlns:xlink="http://www.w3.org/1999/xlink" x="0px" y="0px"
	 viewBox="0 0 179.221 179.221" style="enable-background:new 0 0 179.221 179.221;" xml:space="preserve">
<g>
	<rect x="0.366" y="0" style="fill:#E76166;" width="178.488" height="178.488"/>
	<g>
		<path style="fill-rule:evenodd;clip-rule:evenodd;fill:#F4A247;" d="M100.53,125.791c-0.263,0.413-26.086,0.824-26.372,1.231
			c-8.109,11.569-25.633,16.639-39.567,19.755c-13.865,3.1-14.401,20.713-14.423,32.443h135.177
			c-0.02-11.73-0.278-29.28-14.425-32.443C126.772,143.613,108.223,137.889,100.53,125.791z"/>
		<path style="fill-rule:evenodd;clip-rule:evenodd;fill:#FFE7DE;" d="M74.212,101.083v22.216v10.964
			c6.786,13.884,18.969,14.244,27.087,0v-10.965v-22.215C101.299,83.167,74.212,83.167,74.212,101.083z"/>
		
			<ellipse transform="matrix(0.3947 -0.9188 0.9188 0.3947 -13.3306 168.7065)" style="fill-rule:evenodd;clip-rule:evenodd;fill:#FFE7DE;" cx="121.371" cy="94.47" rx="9.665" ry="5.59"/>
		<path style="fill-rule:evenodd;clip-rule:evenodd;fill:#FFE7DE;" d="M87.756,124.034c-8.818,0-27.446-13.863-33.205-33.718
			C48.737,70.267,59.687,41.51,87.756,41.51c28.067,0,39.021,28.757,33.204,48.806C115.2,110.171,96.574,124.034,87.756,124.034z"/>
		<path style="fill-rule:evenodd;clip-rule:evenodd;fill:#4A4545;" d="M54.544,52.61c7.167-15.333,46-42.833,66.333,4.667
			c5.667-0.334,7.5,9.333,2,28.833c-9.416-21.333-27.083-34.917-27.083-34.917s-28.341-0.473-32.417,8.417
			c-8.75,19.083,3.167,59.083,3.167,59.083s-15.309-21.6-15.75-33.25C50.462,76.66,49.546,63.304,54.544,52.61z"/>
		<path style="fill-rule:evenodd;clip-rule:evenodd;fill:#4A4545;" d="M93.063,66.373c6.887,13.773,9.682,17.839,18.839,14.203
			c9.156-3.635,8.417,6.555,6.753,13.826c8.109-9.819,6.156-19.145,3.634-28.626c-2.764-10.39-16.706-26.197-29.783-25.906
			c-7.105-0.713-17.859,0.13-29.301,7.992C43.229,61.594,49.9,92.448,55.282,96.086c-5.212-28.578,7.549-22.76,16.356-37.708
			C74.532,51.806,85.577,51.4,93.063,66.373z"/>
		<rect x="86.367" y="144.955" style="fill-rule:evenodd;clip-rule:evenodd;fill:#E6D7D7;" width="2.777" height="34.266"/>
	</g>
</g>
<g>
</g>
<g>
</g>
<g>
</g>
<g>
</g>
<g>
</g>
<g>
</g>
<g>
</g>
<g>
</g>
<g>
</g>
<g>
</g>
<g>
</g>
<g>
</g>
<g>
</g>
<g>
</g>
<g>
</g>
</svg>
